<svg xmlns="http://www.w3.org/2000/svg" width="210" height="56" viewBox="0 0 210 56" fill="none">
  <defs>
    <linearGradient id="g" x1="12" y1="10" x2="44" y2="46" gradientUnits="userSpaceOnUse">
      <stop stop-color="#ffd36b"/>
      <stop offset="1" stop-color="#f0a52e"/>
    </linearGradient>
    <linearGradient id="gl" x1="16" y1="16" x2="40" y2="40" gradientUnits="userSpaceOnUse">
      <stop stop-color="#fff0c4"/>
      <stop offset="1" stop-color="#ffce68"/>
    </linearGradient>
  </defs>
  <g transform="translate(4,4)">
    <circle cx="24" cy="24" r="22" fill="#1b1035"/>
    <rect x="14.5" y="23.5" width="19" height="12" rx="2.4" fill="url(#g)"/>
    <rect x="12.5" y="19" width="23" height="5.6" rx="1.8" fill="url(#gl)"/>
    <rect x="22.2" y="19" width="3.6" height="16.5" fill="#1b1035" opacity="0.85"/>
    <path d="M24 19 L18 14.5 L19.6 19.4 Z" fill="url(#g)"/>
    <path d="M24 19 L30 14.5 L28.4 19.4 Z" fill="url(#g)"/>
    <circle cx="24" cy="18.6" r="2.3" fill="url(#gl)" stroke="#1b1035" stroke-width="1.1"/>
    <path d="M35.5 10.5l1.1 2.8 2.8 1.1-2.8 1.1-1.1 2.8-1.1-2.8-2.8-1.1 2.8-1.1z" fill="#ffe9a8"/>
  </g>
  <text x="66" y="38" font-family="-apple-system, 'Segoe UI', Roboto, 'Helvetica Neue', Arial, sans-serif" font-size="34" font-weight="800" letter-spacing="-1.2" fill="#1b1035">Kado</text>
</svg>
