<svg xmlns="http://www.w3.org/2000/svg" width="210" height="56" viewBox="0 0 210 56" fill="none">
  <defs>
    <linearGradient id="g" x1="12" y1="10" x2="44" y2="46" gradientUnits="userSpaceOnUse">
      <stop stop-color="#ffd36b"/>
      <stop offset="1" stop-color="#f0a52e"/>
    </linearGradient>
  </defs>
  <g transform="translate(4,4)">
    <circle cx="24" cy="24" r="22" fill="#1b1035"/>
    <path d="M24 24V6A18 18 0 0 1 42 24Z" fill="#ff5d73"/>
    <path d="M24 24H42A18 18 0 0 1 24 42Z" fill="#ffc24d"/>
    <path d="M24 24V42A18 18 0 0 1 6 24Z" fill="#39d98a"/>
    <path d="M24 24H6A18 18 0 0 1 24 6Z" fill="#8b6cff"/>
    <path d="M24 6V42M6 24H42" stroke="#1b1035" stroke-width="1.6" opacity="0.5"/>
    <circle cx="24" cy="24" r="6.6" fill="url(#g)" stroke="#1b1035" stroke-width="2.5"/>
    <path d="M24 1.5L28 8H20Z" fill="url(#g)"/>
  </g>
  <text x="66" y="38" font-family="-apple-system, 'Segoe UI', Roboto, 'Helvetica Neue', Arial, sans-serif" font-size="34" font-weight="800" letter-spacing="-1.2" fill="#1b1035">Kado</text>
</svg>
